<?xml version="1.0" encoding="UTF-8"?>
<svg id="Layer_2" data-name="Layer 2" xmlns="http://www.w3.org/2000/svg" viewBox="0 0 314 243.16">
  <defs>
    <style>
      .cls-1 {
        fill: #fff;
        stroke-width: 0px;
      }
    </style>
  </defs>
  <g id="Layer_1-2" data-name="Layer 1">
    <g>
      <path class="cls-1" d="m293.16,231.96c-.48,0-.97-.11-1.42-.35-1.48-.79-2.05-2.62-1.26-4.11,11.41-21.56,17.44-45.94,17.44-70.5,0-83.22-67.7-150.92-150.92-150.92S6.08,73.78,6.08,157c0,24.56,6.03,48.94,17.44,70.5.79,1.48.22,3.32-1.26,4.11-1.48.79-3.32.22-4.11-1.26C6.28,207.91,0,182.55,0,157c0-41.94,16.33-81.36,45.98-111.02S115.06,0,157,0s81.36,16.33,111.02,45.98c29.65,29.65,45.98,69.08,45.98,111.02,0,25.55-6.28,50.91-18.15,73.34-.55,1.03-1.6,1.62-2.69,1.62Z"/>
      <path class="cls-1" d="m278.38,183.56c-6.08-13.4-22.31-21.71-36.63-16.8-6.07,2.1-11.6,6.8-13.63,13.12-1.92,5.94-.45,13.16,4.49,17.21,4.5,3.64,11.84,4.55,16.44.66,2.59-2.31,3.22-6.13,1.34-9.07-3.88-5.97-13.1-3.26-13.14,3.83,0,.35.03.69.08,1.03-.1-.04-.19-.1-.28-.15-5.43-3.14-5.47-11.46-1.57-16.02,9.9-12.03,29.66-6.25,36.42,6.3,9.87,17.9-4.73,42.4-24.65,44.08-32.68,2.75-43.88-46.86-50.21-71.49-.59-2.41-1.2-4.83-1.81-7.26,38.24-20.02,46.8-73.94,13.69-102.87-33.04-29.12-97.87-21.92-120.94,16.44-8.54,14.88-9.52,33.97-1.39,49.27,3.78,7.49,9.39,14.44,17.27,18.02,4.07,1.81,11.98,3.79,16.11,1.62,2.21-1.21,3.63-3.71,3.63-6.21-.37-9.43-13.87-9.48-14.26,0,0,.38.04.75.1,1.12-8.32-1.99-14.82-8.83-18.75-16.65-9.22-16.77-5.6-38.87,7.4-52.67,5.13-5.58,11.44-10.06,18.29-13.39,41.94-20.18,96.48-1.86,95.65,50.14-.72,15.86-8.17,31.42-20.09,42.04-3.9-15.39-24.41-89.58-24.41-89.58-.08-.27-.33-.46-.61-.46h-16.43c-.52,0-.82.59-.52,1.01l4.15,5.78c-6.97,23.48-19.14,65.86-28.94,98.94-12.86-.41-25.88-.67-38.51,2-13.57,2.87-27.3,8.22-37.37,18.08-12.89,12.62-17.03,32.7-7.09,48.41,8.17,13.05,25.58,19.39,40.24,14.17,12.07-4.04,21.45-13.58,27.71-24.36,9.66-16.4,13.66-34.19,19.25-52.35,8.13.41,16.25.88,24.27.86v81.75c0,1.68,1.36,3.04,3.04,3.04s3.04-1.36,3.04-3.04v-81.91c6.76-.35,13.44-1.28,19.96-2.97,6.07,24.6,13.64,50.91,33.41,68.35,12.99,11.77,31.11,16.6,47.17,8.04,16.57-8.72,25.97-30.57,18.12-48.08Zm-163.65,2.24c-5.9,19-21.36,48.59-45.25,43.55-24.83-6.72-23.29-41.92-7.38-56.77,12.78-12.7,29.65-15.31,46.93-15.64,4.81-.03,9.62.13,14.42.3-3.37,11.32-6.39,21.26-8.72,28.57Zm20.02-33.97c-1.22-.03-2.43-.06-3.65-.1,5.67-19.03,15.46-51.71,22.55-75.37v74.79c-6.24.64-12.58.75-18.89.68Zm24.97-1.49v-74.57c5.65,23.78,11.29,46.03,17.38,69.58-5.59,2.45-11.42,4.01-17.38,4.99Z"/>
    </g>
  </g>
</svg>