<?xml version="1.0" encoding="UTF-8"?>
<svg id="Layer_2" data-name="Layer 2" xmlns="http://www.w3.org/2000/svg" viewBox="0 0 481.89 385.32">
  <defs>
    <style>
      .cls-1 {
        fill: #fffcf6;
        stroke-width: 0px;
      }
    </style>
  </defs>
  <g id="Layer_1-2" data-name="Layer 1">
    <g>
      <path class="cls-1" d="m379.22,231.96c-.48,0-.97-.11-1.42-.35-1.48-.79-2.05-2.62-1.26-4.11,11.41-21.56,17.44-45.94,17.44-70.5,0-83.22-67.7-150.92-150.92-150.92S92.14,73.78,92.14,157c0,24.56,6.03,48.94,17.44,70.5.79,1.48.22,3.32-1.26,4.11-1.48.79-3.32.22-4.11-1.26-11.87-22.43-18.15-47.79-18.15-73.34,0-41.94,16.33-81.36,45.98-111.02S201.12,0,243.06,0s81.36,16.33,111.02,45.98c29.65,29.65,45.98,69.08,45.98,111.02,0,25.55-6.28,50.91-18.15,73.34-.55,1.03-1.6,1.62-2.69,1.62Z"/>
      <path class="cls-1" d="m364.43,183.56c-6.08-13.4-22.31-21.71-36.63-16.8-6.07,2.1-11.6,6.8-13.63,13.12-1.92,5.94-.45,13.16,4.49,17.21,4.5,3.64,11.84,4.55,16.44.66,2.59-2.31,3.22-6.13,1.34-9.07-3.88-5.97-13.1-3.26-13.14,3.83,0,.35.03.69.08,1.03-.1-.04-.19-.1-.28-.15-5.43-3.14-5.47-11.46-1.57-16.02,9.9-12.03,29.66-6.25,36.42,6.3,9.87,17.9-4.73,42.4-24.65,44.08-32.68,2.75-43.88-46.86-50.21-71.49-.59-2.41-1.2-4.83-1.81-7.26,38.24-20.02,46.8-73.94,13.69-102.87-33.04-29.12-97.87-21.92-120.94,16.44-8.54,14.88-9.52,33.97-1.39,49.27,3.78,7.49,9.39,14.44,17.27,18.02,4.07,1.81,11.98,3.79,16.11,1.62,2.21-1.21,3.63-3.71,3.63-6.21-.37-9.43-13.87-9.48-14.26,0,0,.38.04.75.1,1.12-8.32-1.99-14.82-8.83-18.75-16.65-9.22-16.77-5.6-38.87,7.4-52.67,5.13-5.58,11.44-10.06,18.29-13.39,41.94-20.18,96.48-1.86,95.65,50.14-.72,15.86-8.17,31.42-20.09,42.04-3.9-15.39-24.41-89.58-24.41-89.58-.08-.27-.33-.46-.61-.46h-16.43c-.52,0-.82.59-.52,1.01l4.15,5.78c-6.97,23.48-19.14,65.86-28.94,98.94-12.86-.41-25.88-.67-38.51,2-13.57,2.87-27.3,8.22-37.37,18.08-12.89,12.62-17.03,32.7-7.09,48.41,8.17,13.05,25.58,19.39,40.24,14.17,12.07-4.04,21.45-13.58,27.71-24.36,9.66-16.4,13.66-34.19,19.25-52.35,8.13.41,16.25.88,24.27.86v81.75c0,1.68,1.36,3.04,3.04,3.04s3.04-1.36,3.04-3.04v-81.91c6.76-.35,13.44-1.28,19.96-2.97,6.07,24.6,13.64,50.91,33.41,68.35,12.99,11.77,31.11,16.6,47.17,8.04,16.57-8.72,25.97-30.57,18.12-48.08Zm-163.65,2.24c-5.9,19-21.36,48.59-45.25,43.55-24.83-6.72-23.29-41.92-7.38-56.77,12.78-12.7,29.65-15.31,46.93-15.64,4.81-.03,9.62.13,14.42.3-3.37,11.32-6.39,21.26-8.72,28.57Zm20.02-33.97c-1.22-.03-2.43-.06-3.65-.1,5.67-19.03,15.46-51.71,22.55-75.37v74.79c-6.24.64-12.58.75-18.89.68Zm24.97-1.49v-74.57c5.65,23.78,11.29,46.03,17.38,69.58-5.59,2.45-11.42,4.01-17.38,4.99Z"/>
      <g>
        <g>
          <path class="cls-1" d="m16.09,285.88c.66-.79.99-1.88.99-3.26,0-1.68-.41-3.06-1.22-4.11-.81-1.06-2.01-1.58-3.58-1.58-1.05,0-2.03.32-2.94.96v18.4l5.57,1.22-1.06,2.08H.54v-1.79l3.01-2.37v-17.82l-3.55-1.09,1.06-2.08h5.31c1.9,0,3.76-.06,5.6-.19,1.36-.08,2.37-.13,3.01-.13,1.66,0,3.14.33,4.42.98,1.28.65,2.27,1.54,2.98,2.67s1.06,2.39,1.06,3.78c0,1.54-.59,2.98-1.76,4.32-1.17,1.34-2.66,2.4-4.45,3.17-1.79.77-3.54,1.11-5.25,1.02l-1.41-.86,1.06-2.08h1.79v-.03c1.13,0,2.03-.39,2.69-1.18Z"/>
          <path class="cls-1" d="m41.24,299.54h-11.33v-1.79l3.01-2.53v-17.73l-3.55-1.02,1.06-2.08h11.33v1.79l-3.04,2.56v17.73l3.55.99-1.02,2.08Z"/>
          <path class="cls-1" d="m70.79,299.58h-20.41v-1.79l3.01-2.37v-17.98l-3.55-.93,1.06-2.08h11.33v1.79l-3.04,2.37v18.56h7.2l4.96-7.17,1.76.74v9.44l-2.3-.58Z"/>
          <path class="cls-1" d="m109.08,299.58h-11.9v-1.79l3.49-2.08-1.95-4.77h-9.89l-1.76,4.29,4.9,2.27-1.02,2.08h-10.33v-1.79l3.46-2.59,8.19-19.74,5.54-1.63,9.09,22.04,3.26,1.63-1.06,2.08Zm-15.26-20.7l-3.97,9.6h7.87l-3.9-9.6Z"/>
          <path class="cls-1" d="m138.58,282.65l-1.76.7-4.51-6.5h-2.98v19.71l3.58.93-1.06,2.08h-11.33v-1.79l3.01-2.37v-18.56h-2.85l-4.51,6.5-1.76-.7v-8.8l2.3.58h19.55l2.3-.58v8.8Z"/>
          <path class="cls-1" d="m166.23,299.61h-20.22v-1.79l3.01-2.37v-17.89l-3.55-1.06,1.06-2.08h19.39l2.3-.58v8.16l-1.76.7-3.94-5.86h-7.71v8.64h3.81l2.34-3.58h1.79v9.31l-2.08,1.06-2.08-4.32h-3.78v9.18h7.45l4.51-6.53,1.76.74v8.83l-2.3-.58Z"/>
          <path class="cls-1" d="m190.66,292.47c-.5-.58-1.14-1.11-1.9-1.6-.77-.49-1.79-1.09-3.07-1.79-1.58-.87-2.86-1.64-3.86-2.3-.99-.66-1.83-1.43-2.51-2.3-.68-.87-1.02-1.83-1.02-2.88s.49-2.21,1.47-3.44,2.18-2.26,3.6-3.1c1.42-.84,2.72-1.26,3.92-1.26,1.43,0,3.1.16,5.02.48s3.33.66,4.22,1.02v7.01h-3.01c-.9-1.73-1.88-3.07-2.96-4.03-1.08-.96-2.21-1.44-3.41-1.44-.85,0-1.53.27-2.02.82-.49.54-.74,1.23-.74,2.06,0,.68.26,1.33.78,1.94.52.61,1.17,1.16,1.95,1.66.78.5,1.83,1.11,3.15,1.84,1.56.85,2.82,1.6,3.78,2.24s1.77,1.39,2.43,2.24c.66.85.99,1.79.99,2.82s-.52,2.21-1.57,3.44c-1.05,1.23-2.32,2.26-3.82,3.1-1.5.84-2.87,1.26-4.11,1.26-1.49,0-3.28-.16-5.36-.48s-3.58-.66-4.5-1.02v-7.01h3.01c.94,1.73,2.03,3.07,3.26,4.03,1.24.96,2.48,1.44,3.74,1.44.98,0,1.77-.28,2.37-.85.6-.56.9-1.25.9-2.06,0-.64-.25-1.25-.75-1.82Z"/>
          <path class="cls-1" d="m245.04,299.58h-6.94l-6.17-11.07-1.41-.86.8-1.57h1.47c1.15,0,2.06-.35,2.72-1.06.66-.7.99-1.7.99-2.98,0-1.49-.4-2.71-1.2-3.66-.8-.95-1.97-1.42-3.5-1.42-.96,0-1.86.3-2.69.9v18.65l3.55,1.02-1.02,2.08h-11.33v-1.79l3.01-2.53v-17.76l-3.55-.99,1.06-2.08h5.31c1.86,0,3.68-.06,5.47-.19,1.28-.08,2.24-.13,2.88-.13,1.64,0,3.1.29,4.37.88,1.27.59,2.25,1.38,2.94,2.38.69,1,1.04,2.12,1.04,3.36,0,1.49-.66,2.88-1.98,4.16-1.32,1.28-2.93,2.24-4.83,2.88l2.56.74,4.16,7.42,3.33,1.54-1.02,2.08Z"/>
          <path class="cls-1" d="m273.85,299.61h-20.22v-1.79l3.01-2.37v-17.89l-3.55-1.06,1.06-2.08h19.39l2.3-.58v8.16l-1.76.7-3.93-5.86h-7.71v8.64h3.81l2.34-3.58h1.79v9.31l-2.08,1.06-2.08-4.32h-3.78v9.18h7.46l4.51-6.53,1.76.74v8.83l-2.3-.58Z"/>
          <path class="cls-1" d="m307.05,282.04l-1.76.7-4.06-5.86h-7.58v8.64h3.81l2.34-3.58h1.79v9.37l-2.08,1.02-2.08-4.35h-3.78v8.32l5.57,1.22-1.06,2.08h-13.31v-1.79l3.01-2.37v-17.89l-3.55-1.06,1.06-2.08h19.39l2.3-.54v8.16Z"/>
          <path class="cls-1" d="m336,275.42c1.88,1.09,3.33,2.59,4.35,4.51,1.02,1.92,1.54,4.1,1.54,6.53s-.78,4.8-2.34,6.91c-1.56,2.11-3.48,3.78-5.77,5.01-2.29,1.23-4.47,1.84-6.54,1.84-2.45,0-4.61-.54-6.48-1.62-1.87-1.08-3.32-2.58-4.35-4.49-1.03-1.92-1.55-4.1-1.55-6.53s.77-4.8,2.32-6.93c1.55-2.12,3.47-3.8,5.77-5.02,2.3-1.23,4.49-1.84,6.56-1.84,2.45,0,4.62.54,6.5,1.63Zm-11.63,3.17c-.99.75-1.78,1.77-2.35,3.07-.58,1.3-.86,2.76-.86,4.38,0,1.92.29,3.67.88,5.26.59,1.59,1.47,2.86,2.66,3.81,1.18.95,2.65,1.42,4.4,1.42,1.17,0,2.26-.37,3.25-1.12.99-.75,1.78-1.77,2.35-3.07.58-1.3.86-2.76.86-4.38,0-1.94-.29-3.7-.86-5.28-.58-1.58-1.46-2.84-2.64-3.79-1.18-.95-2.65-1.42-4.4-1.42-1.19,0-2.29.37-3.28,1.12Z"/>
          <path class="cls-1" d="m374.29,299.58h-6.94l-6.17-11.07-1.41-.86.8-1.57h1.47c1.15,0,2.06-.35,2.72-1.06s.99-1.7.99-2.98c0-1.49-.4-2.71-1.2-3.66-.8-.95-1.97-1.42-3.5-1.42-.96,0-1.86.3-2.69.9v18.65l3.55,1.02-1.02,2.08h-11.33v-1.79l3.01-2.53v-17.76l-3.55-.99,1.06-2.08h5.31c1.86,0,3.68-.06,5.47-.19,1.28-.08,2.24-.13,2.88-.13,1.64,0,3.1.29,4.37.88,1.27.59,2.25,1.38,2.94,2.38.69,1,1.04,2.12,1.04,3.36,0,1.49-.66,2.88-1.98,4.16s-2.93,2.24-4.83,2.88l2.56.74,4.16,7.42,3.33,1.54-1.02,2.08Z"/>
          <path class="cls-1" d="m415.74,299.7h-11.33v-1.79l3.01-2.37v-15.36l-7.93,19.48h-2.78l-8.06-19.64v16.13l3.55,1.41-1.02,2.08h-8.29v-1.79l3.01-2.37v-17.44l-3.55-1.5,1.06-2.08h8.99l7.3,17.79,7.23-17.79h9.34v1.79l-3.04,2.37v17.95l3.55,1.06-1.02,2.08Z"/>
          <path class="cls-1" d="m445.12,299.61h-20.22v-1.79l3.01-2.37v-17.89l-3.55-1.06,1.06-2.08h19.39l2.3-.58v8.16l-1.76.7-3.93-5.86h-7.71v8.64h3.81l2.34-3.58h1.79v9.31l-2.08,1.06-2.08-4.32h-3.78v9.18h7.45l4.51-6.53,1.76.74v8.83l-2.3-.58Z"/>
          <path class="cls-1" d="m480.87,299.58h-6.94l-6.18-11.07-1.41-.86.8-1.57h1.47c1.15,0,2.06-.35,2.72-1.06.66-.7.99-1.7.99-2.98,0-1.49-.4-2.71-1.2-3.66-.8-.95-1.97-1.42-3.5-1.42-.96,0-1.86.3-2.69.9v18.65l3.55,1.02-1.02,2.08h-11.33v-1.79l3.01-2.53v-17.76l-3.55-.99,1.06-2.08h5.31c1.86,0,3.68-.06,5.47-.19,1.28-.08,2.24-.13,2.88-.13,1.64,0,3.1.29,4.37.88,1.27.59,2.25,1.38,2.94,2.38.69,1,1.04,2.12,1.04,3.36,0,1.49-.66,2.88-1.98,4.16-1.32,1.28-2.93,2.24-4.83,2.88l2.56.74,4.16,7.42,3.33,1.54-1.02,2.08Z"/>
        </g>
        <g>
          <path class="cls-1" d="m183.57,384.68h-11.9v-1.79l3.49-2.08-1.95-4.77h-9.89l-1.76,4.29,4.9,2.27-1.02,2.08h-10.33v-1.79l3.46-2.59,8.19-19.74,5.54-1.63,9.09,22.04,3.26,1.63-1.06,2.08Zm-15.26-20.7l-3.97,9.6h7.87l-3.9-9.6Z"/>
          <path class="cls-1" d="m214.5,379.09l.86,1.92-5.89,3.62c-1.05.28-2.05.46-3.01.56-.96.1-1.99.14-3.1.14-2.56,0-4.83-.54-6.81-1.63-1.98-1.09-3.52-2.59-4.61-4.5-1.09-1.91-1.63-4.08-1.63-6.51s.81-4.8,2.43-6.93c1.62-2.12,3.64-3.8,6.06-5.02,2.42-1.23,4.72-1.84,6.89-1.84,1.32,0,2.88.16,4.67.48,1.79.32,3.1.66,3.94,1.02v7.62h-3.01c-1.88-3.63-4.36-5.44-7.45-5.44-1.34,0-2.57.37-3.66,1.12-1.1.75-1.97,1.77-2.61,3.07-.64,1.3-.96,2.76-.96,4.38,0,1.9.31,3.64.94,5.23.63,1.59,1.58,2.86,2.86,3.81,1.28.95,2.86,1.42,4.74,1.42h1.18c.7,0,1.48-.06,2.34-.19v-6.4l-5.15-1.25,1.06-2.08h12.93v1.79l-3.01,2.56v3.04Z"/>
          <path class="cls-1" d="m249.27,384.68h-6.94l-6.17-11.07-1.41-.86.8-1.57h1.47c1.15,0,2.06-.35,2.72-1.06.66-.7.99-1.7.99-2.98,0-1.49-.4-2.71-1.2-3.66-.8-.95-1.97-1.42-3.5-1.42-.96,0-1.86.3-2.69.9v18.65l3.55,1.02-1.02,2.08h-11.33v-1.79l3.01-2.53v-17.76l-3.55-.99,1.06-2.08h5.31c1.86,0,3.68-.06,5.47-.19,1.28-.08,2.24-.13,2.88-.13,1.64,0,3.1.29,4.37.88,1.27.59,2.25,1.38,2.94,2.38.69,1,1.04,2.12,1.04,3.36,0,1.49-.66,2.88-1.98,4.16s-2.93,2.24-4.83,2.88l2.56.74,4.16,7.42,3.33,1.54-1.02,2.08Z"/>
          <path class="cls-1" d="m282.03,384.68h-11.9v-1.79l3.49-2.08-1.95-4.77h-9.89l-1.76,4.29,4.9,2.27-1.02,2.08h-10.33v-1.79l3.46-2.59,8.19-19.74,5.54-1.63,9.09,22.04,3.26,1.63-1.06,2.08Zm-15.26-20.7l-3.97,9.6h7.87l-3.9-9.6Z"/>
          <path class="cls-1" d="m323.53,384.81h-11.33v-1.79l3.01-2.37v-15.36l-7.93,19.48h-2.78l-8.06-19.64v16.13l3.55,1.41-1.02,2.08h-8.29v-1.79l3.01-2.37v-17.44l-3.55-1.5,1.06-2.08h8.99l7.3,17.79,7.23-17.79h9.34v1.79l-3.04,2.37v17.95l3.55,1.06-1.02,2.08Z"/>
        </g>
        <path class="cls-1" d="m243.06,325.85c2.31,0,4.2,1.88,4.2,4.2s-1.88,4.2-4.2,4.2-4.2-1.88-4.2-4.2,1.88-4.2,4.2-4.2m0-4.48c-4.79,0-8.68,3.88-8.68,8.68s3.88,8.68,8.68,8.68,8.68-3.88,8.68-8.68-3.88-8.68-8.68-8.68h0Z"/>
        <g>
          <path class="cls-1" d="m220.98,332.29H41.91c-1.24,0-2.24-1-2.24-2.24s1-2.24,2.24-2.24h179.08c1.24,0,2.24,1,2.24,2.24s-1,2.24-2.24,2.24Z"/>
          <path class="cls-1" d="m444.21,332.29h-179.72c-1.24,0-2.24-1-2.24-2.24s1-2.24,2.24-2.24h179.72c1.24,0,2.24,1,2.24,2.24s-1,2.24-2.24,2.24Z"/>
        </g>
        <path class="cls-1" d="m139.71,374.04h-56.21c-1.24,0-2.24-1-2.24-2.24s1-2.24,2.24-2.24h56.21c1.24,0,2.24,1,2.24,2.24s-1,2.24-2.24,2.24Z"/>
        <path class="cls-1" d="m402.61,374.04h-56.21c-1.24,0-2.24-1-2.24-2.24s1-2.24,2.24-2.24h56.21c1.24,0,2.24,1,2.24,2.24s-1,2.24-2.24,2.24Z"/>
      </g>
    </g>
  </g>
</svg>